<?xml version="1.0" encoding="UTF-8"?>
<svg width="20px" height="20px" viewBox="0 0 20 20" version="1.1" xmlns="http://www.w3.org/2000/svg" xmlns:xlink="http://www.w3.org/1999/xlink">
    <!-- Generator: Sketch 52.5 (67469) - http://www.bohemiancoding.com/sketch -->
    <title>未命名</title>
    <desc>Created with Sketch.</desc>
    <g id="Page-1" stroke="none" stroke-width="1" fill="none" fill-rule="evenodd">
        <g id="设置" fill="#FFFFFF" fill-rule="nonzero">
            <rect id="Rectangle-path" opacity="0" x="0" y="0" width="20" height="20"></rect>
            <path d="M19.3385672,7.64272 L17.790258,8.54412 C17.8770996,9.01752 17.9340607,9.50112 17.9340607,10.00012 C17.9340607,10.49904 17.8770996,10.98264 17.790298,11.45596 L19.3386072,12.35728 C19.9710591,12.72544 20.1877832,13.54096 19.8226163,14.17864 L18.5003114,16.48808 C18.1351845,17.12572 17.3264092,17.3442 16.6939173,16.97612 L15.1297278,16.06544 C14.398874,16.69276 13.5680984,17.20544 12.644721,17.53504 L12.644721,18.66664 C12.644721,19.40304 12.0526698,20 11.322376,20 L8.67768618,20 C7.94739242,20 7.35534126,19.403 7.35534126,18.66664 L7.35534126,17.53504 C6.43196385,17.2054 5.60118819,16.69272 4.87033441,16.06544 L3.30614492,16.97612 C2.673653,17.34424 1.86491776,17.12576 1.49983087,16.48808 L0.177365943,14.1786 C-0.18776094,13.54096 0.0289231444,12.72544 0.661375067,12.35724 L2.20968425,11.45592 C2.12288262,10.98264 2.06592154,10.499 2.06592154,10.00008 C2.06592154,9.50108 2.12288262,9.01748 2.20968425,8.54404 L0.661375067,7.64272 C0.0289231444,7.27456 -0.18776094,6.45904 0.177365943,5.82136 L1.49979087,3.512 C1.86487775,2.87424 2.673613,2.65568 3.30610492,3.02392 L4.87033441,3.93452 C5.60118819,3.30716 6.43196385,2.79452 7.35530126,2.46492 L7.35530126,1.3334 C7.35530126,0.597 7.94735242,0 8.67764618,0 L11.322336,0 C12.0526298,0 12.644681,0.597 12.644681,1.3334 L12.644681,2.46492 C13.5680184,2.79456 14.398794,3.30716 15.1296478,3.93452 L16.6938773,3.02392 C17.3263692,2.65568 18.1351445,2.87424 18.5002714,3.512 L19.8225763,5.82136 C20.1877432,6.459 19.9710191,7.27456 19.3385672,7.64272 Z M10.0000311,13.33324 C11.8257855,13.33324 13.3058534,11.84092 13.3058934,10.00008 C13.3058934,8.15908 11.8257855,6.6666 10.0000311,6.6666 C8.17423669,6.6666 6.69416879,8.15908 6.69416879,10.00008 C6.69416879,11.84088 8.17423669,13.33324 10.0000311,13.33324 Z M10.0000311,8.00004 C8.90453046,8.00004 8.01651372,8.89544 8.01651372,10.00008 C8.01651372,11.10456 8.90457046,11.99988 10.0000311,11.99988 C11.0954518,11.99988 11.9835085,11.1046 11.9835085,10.00008 C11.9835085,8.89544 11.0954518,8.00004 10.0000311,8.00004 Z" id="Shape"></path>
        </g>
    </g>
</svg>