<?xml version="1.0" encoding="UTF-8"?>
<svg width="100px" height="617px" viewBox="0 0 100 617" version="1.1" xmlns="http://www.w3.org/2000/svg" xmlns:xlink="http://www.w3.org/1999/xlink">
    <!-- Generator: Sketch 49.3 (51167) - http://www.bohemiancoding.com/sketch -->
    <title>wb copy 4</title>
    <desc>Created with Sketch.</desc>
    <defs>
        <rect id="path-1" x="14.4223968" y="10.5823968" width="2" height="8" rx="1"></rect>
        <rect id="path-2" x="4" y="7" width="8" height="2" rx="1"></rect>
        <rect id="path-3" x="7" y="4" width="2" height="8" rx="1"></rect>
        <rect id="path-4" x="4" y="7" width="8" height="2" rx="1"></rect>
        <rect id="path-5" x="7" y="4" width="2" height="8" rx="1"></rect>
        <rect id="path-6" x="14.4223968" y="10.5823968" width="2" height="8" rx="1"></rect>
        <rect id="path-7" x="4" y="7" width="8" height="2" rx="1"></rect>
    </defs>
    <g id="Page-1" stroke="none" stroke-width="1" fill="none" fill-rule="evenodd">
        <g id="wb-copy-4" transform="translate(0.000000, -2.000000)">
            <g id="调色板" transform="translate(0.000000, 400.000000)">
                <g stroke-width="1" fill-rule="evenodd" id="Rectangle-9">
                    <rect x="0" y="0" width="20" height="20"></rect>
                </g>
                <rect id="Rectangle-4" stroke="#979797" stroke-width="2" x="1" y="3" width="18" height="14" rx="2"></rect>
            </g>
            <g id="形状" transform="translate(0.000000, 320.000000)">
                <g>
                    <rect id="Rectangle-8" x="0" y="0" width="20" height="20"></rect>
                    <path d="M7.37061712,2.00013385 L1,12.1931213 L13.7412342,12.1931213 L7.37061712,2.00013385 Z" id="Triangle" stroke="#979797" stroke-width="2"></path>
                    <circle id="Oval" stroke="#979797" stroke-width="2" cx="13" cy="12" r="6"></circle>
                    <path d="M18.6695997,17.2713595 L19.8087501,19.0940003 C19.8672922,19.1876676 19.8388176,19.3110577 19.7451503,19.3695998 C19.7133639,19.3894662 19.6766344,19.4000001 19.6391505,19.4000001 L17.3608495,19.4000001 C17.2503926,19.4000001 17.1608495,19.310457 17.1608495,19.2000001 C17.1608495,19.1625161 17.1713834,19.1257866 17.1912499,19.0940003 L18.3304003,17.2713595 C18.3889424,17.1776922 18.5123325,17.1492175 18.6059998,17.2077596 C18.6317536,17.2238557 18.6535035,17.2456056 18.6695997,17.2713595 Z" id="Rectangle-3" fill="#979797"></path>
                </g>
            </g>
            <g id="激光笔" transform="translate(0.000000, 360.000000)">
                <g id="形状" stroke-width="1">
                    <rect id="Rectangle-8" x="0" y="0" width="20" height="20"></rect>
                    <circle id="Oval" stroke="#979797" stroke-width="2" cx="12" cy="8" r="6"></circle>
                </g>
                <circle id="Oval-2" fill="#979797" cx="12" cy="8" r="2"></circle>
                <circle id="Oval-2-Copy" fill="#979797" cx="6" cy="15" r="1"></circle>
                <circle id="Oval-2-Copy-2" fill="#979797" cx="3" cy="18" r="1"></circle>
            </g>
            <g id="删除_hover-copy" transform="translate(0.000000, 600.000000)">
                <g id="Group" transform="translate(1.000000, 0.000000)">
                    <rect id="Rectangle-2" fill="#979797" x="6" y="0" width="6" height="2" rx="1"></rect>
                    <rect id="Rectangle" stroke="#979797" stroke-width="2" x="3" y="4" width="12" height="14" rx="2"></rect>
                    <rect id="Rectangle-11" fill="#979797" x="0" y="3" width="18" height="2" rx="1"></rect>
                    <rect id="Rectangle-12" fill="#979797" x="6" y="7" width="2" height="7" rx="1"></rect>
                    <rect id="Rectangle-12-Copy" fill="#979797" x="10" y="7" width="2" height="7" rx="1"></rect>
                </g>
            </g>
            <g id="橡皮擦_hover-copy" transform="translate(0.000000, 560.000000)">
                <rect id="Rectangle-9-Copy-3" x="0" y="0" width="20" height="20"></rect>
                <rect id="Rectangle-path" fill="#FFFFFF" fill-rule="nonzero" opacity="0" x="0" y="0" width="20" height="20"></rect>
                <g id="Group" stroke-width="1" fill-rule="evenodd" transform="translate(1.000000, 0.000000)">
                    <path d="M3.18839681,10 L1.26839681,18 L16.7316032,18 L14.8116032,10 L3.18839681,10 Z" id="Rectangle-15" stroke="#979797" stroke-width="2"></path>
                    <path d="M9,0 L9,0 C9.55228475,-1.01453063e-16 10,0.44771525 10,1 L10,10 C10,10.5522847 9.55228475,11 9,11 L9,11 C8.44771525,11 8,10.5522847 8,10 L8,1 C8,0.44771525 8.44771525,1.01453063e-16 9,0 Z" id="Rectangle-16" fill="#979797"></path>
                    <polygon id="Path-3-Copy" fill="#979797" points="8 17.6687012 9.60571289 15 9.60571289 17.6687012"></polygon>
                    <polygon id="Path-3-Copy-2" fill="#979797" points="10 17.6687012 11.6057129 15 11.6057129 17.6687012"></polygon>
                    <polygon id="Path-3-Copy-4" fill="#979797" points="12 17.6687012 13.6057129 15 13.6057129 17.6687012"></polygon>
                    <polygon id="Path-3" fill="#979797" points="6 17.6687012 7.60571289 15 7.60571289 17.6687012"></polygon>
                    <polygon id="Path-3-Copy-3" fill="#979797" points="3.39428711 17.6687012 5 15 5 17.6687012"></polygon>
                </g>
            </g>
            <g id="撤销_hover-copy" transform="translate(0.000000, 480.000000)">
                <rect id="Rectangle-9-Copy-5" x="0" y="0" width="20" height="20"></rect>
                <g id="撤销" stroke-width="1" fill-rule="evenodd">
                    <rect id="Rectangle-path" fill="#04B7A1" fill-rule="nonzero" opacity="0" x="0" y="0" width="20" height="20"></rect>
                    <path d="M4.88721745,5.14692285 L12.0334701,5.14692285 C15.7668137,5.14692285 18.7932867,8.17339579 18.7932867,11.9067394 C18.7932867,15.6400829 15.7668137,18.6665559 12.0334701,18.6665559 L3.02038146,18.6665559 C2.39815753,18.6665559 1.89374537,18.1621437 1.89374537,17.5399198 C1.89374537,16.9176959 2.39815753,16.4132837 3.02038146,16.4132837 L12.0334701,16.4132837 C14.5223659,16.4132837 16.5400145,14.3956351 16.5400145,11.9067394 C16.5400145,9.41784365 14.5223659,7.40019502 12.0334701,7.40019502 L4.80722629,7.40019502 L6.11074424,8.70371297 C6.40341373,8.98679111 6.52057078,9.40575789 6.41718673,9.79958577 C6.31380267,10.1934137 6.00596616,10.5008151 5.61199245,10.603642 C5.21801873,10.7064689 4.79921807,10.5887194 4.51655418,10.2956498 L1.33042733,7.11064955 C1.11887094,6.89932838 1,6.61257415 1,6.31355452 C1,6.01453488 1.11887094,5.72778065 1.33042733,5.51645948 L4.51655418,2.33033264 C4.9564665,1.89010921 5.66995749,1.889857 6.11018092,2.32976932 C6.55040435,2.76968163 6.55065656,3.48317263 6.11074424,3.92339606 L4.88721745,5.14692285 Z" id="Shape" fill="#979797" fill-rule="nonzero"></path>
                </g>
            </g>
            <g id="撤销_hover-copy" transform="translate(10.000000, 450.000000) scale(-1, 1) translate(-10.000000, -450.000000) translate(0.000000, 440.000000)">
                <rect id="Rectangle-9-Copy-5" x="0" y="0" width="20" height="20"></rect>
                <g id="撤销" stroke-width="1" fill-rule="evenodd">
                    <rect id="Rectangle-path" fill="#04B7A1" fill-rule="nonzero" opacity="0" x="0" y="0" width="20" height="20"></rect>
                    <path d="M4.88721745,5.14692285 L12.0334701,5.14692285 C15.7668137,5.14692285 18.7932867,8.17339579 18.7932867,11.9067394 C18.7932867,15.6400829 15.7668137,18.6665559 12.0334701,18.6665559 L3.02038146,18.6665559 C2.39815753,18.6665559 1.89374537,18.1621437 1.89374537,17.5399198 C1.89374537,16.9176959 2.39815753,16.4132837 3.02038146,16.4132837 L12.0334701,16.4132837 C14.5223659,16.4132837 16.5400145,14.3956351 16.5400145,11.9067394 C16.5400145,9.41784365 14.5223659,7.40019502 12.0334701,7.40019502 L4.80722629,7.40019502 L6.11074424,8.70371297 C6.40341373,8.98679111 6.52057078,9.40575789 6.41718673,9.79958577 C6.31380267,10.1934137 6.00596616,10.5008151 5.61199245,10.603642 C5.21801873,10.7064689 4.79921807,10.5887194 4.51655418,10.2956498 L1.33042733,7.11064955 C1.11887094,6.89932838 1,6.61257415 1,6.31355452 C1,6.01453488 1.11887094,5.72778065 1.33042733,5.51645948 L4.51655418,2.33033264 C4.9564665,1.89010921 5.66995749,1.889857 6.11018092,2.32976932 C6.55040435,2.76968163 6.55065656,3.48317263 6.11074424,3.92339606 L4.88721745,5.14692285 Z" id="Shape" fill="#979797" fill-rule="nonzero"></path>
                </g>
            </g>
            <g id="画笔_hover-copy" transform="translate(0.000000, 200.000000)">
                <g id="Group" transform="translate(2.000000, 1.000000)">
                    <path d="M15.2486264,3.49140774 L13.7830361,2.11683655 C13.3849815,1.7435028 12.7611153,1.75825028 12.3811458,2.14997561 L1.29758856,13.5764473 C1.11854886,13.7610263 1.01749462,14.0074818 1.01541677,14.2646081 C1.00365985,15.7232989 1.00365985,15.7232989 1.0013472,16.0097046 C1.0013472,16.5619893 1.44906245,17.0097046 2.0013472,17.0097046 L3.42089184,17.0097046 C3.69586983,17.0097046 3.95871418,16.896474 4.14760656,16.696644 L15.2939247,4.90489565 C15.6717398,4.50206297 15.6514591,3.86922287 15.2486264,3.49140774 Z" id="Rectangle-8" stroke="#979797" stroke-width="2"></path>
                    <rect id="Rectangle-10" fill="#979797" x="1" y="16" width="15" height="2" rx="1"></rect>
                    <polygon id="Path-25" fill="#979797" points="10.5610352 3.73999023 13.5073242 6.57202148 15.7126465 4.08032227 12.8618164 1.64355469"></polygon>
                </g>
            </g>
            <g id="放大" transform="translate(0.000000, 120.000000)">
                <g transform="translate(0.000000, 1.000000)">
                    <rect id="Rectangle-path" fill="#787878" fill-rule="nonzero" opacity="0" x="0" y="0" width="20" height="21"></rect>
                    <g id="Group" transform="translate(1.000000, 0.000000)">
                        <circle id="Oval" stroke="#979797" stroke-width="2" cx="8" cy="8" r="7"></circle>
                        <g id="Rectangle-2" transform="translate(15.422397, 14.422397) rotate(-45.000000) translate(-15.422397, -14.422397) ">
                            <use fill="#D8D8D8" fill-rule="evenodd" xlink:href="#path-1"></use>
                            <rect stroke="#979797" stroke-width="1" x="14.9223968" y="11.0823968" width="1" height="7" rx="0.5"></rect>
                        </g>
                        <g id="Rectangle-4">
                            <use fill="#D8D8D8" fill-rule="evenodd" xlink:href="#path-2"></use>
                            <rect stroke="#979797" stroke-width="1" x="4.5" y="7.5" width="7" height="1" rx="0.5"></rect>
                        </g>
                        <g id="Rectangle-3">
                            <use fill="#D8D8D8" fill-rule="evenodd" xlink:href="#path-3"></use>
                            <rect stroke="#979797" stroke-width="1" x="7.5" y="4.5" width="1" height="7" rx="0.5"></rect>
                        </g>
                    </g>
                </g>
            </g>
            <g id="添加">
                <g id="Group" transform="translate(2.000000, 2.000000)">
                    <circle id="Oval" stroke="#979797" stroke-width="2" cx="8" cy="8" r="7"></circle>
                    <g id="Rectangle-4">
                        <use fill="#D8D8D8" fill-rule="evenodd" xlink:href="#path-4"></use>
                        <rect stroke="#979797" stroke-width="1" x="4.5" y="7.5" width="7" height="1" rx="0.5"></rect>
                    </g>
                    <g id="Rectangle-3">
                        <use fill="#D8D8D8" fill-rule="evenodd" xlink:href="#path-5"></use>
                        <rect stroke="#979797" stroke-width="1" x="7.5" y="4.5" width="1" height="7" rx="0.5"></rect>
                    </g>
                </g>
            </g>
            <g id="白板页" transform="translate(0.000000, 40.000000)" stroke="#979797" stroke-width="2">
                <rect id="Rectangle-5" x="3" y="3" width="5" height="5" rx="1"></rect>
                <rect id="Rectangle-5-Copy" x="12" y="3" width="5" height="5" rx="1"></rect>
                <rect id="Rectangle-5-Copy-2" x="3" y="12" width="5" height="5" rx="1"></rect>
                <rect id="Rectangle-5-Copy-3" x="12" y="12" width="5" height="5" rx="1"></rect>
            </g>
            <g id="缩小" transform="translate(0.000000, 80.000000)">
                <g id="放大">
                    <rect id="Rectangle-path" fill="#787878" fill-rule="nonzero" opacity="0" x="0" y="0" width="20" height="20"></rect>
                    <g id="Group" transform="translate(1.000000, 1.000000)">
                        <circle id="Oval" stroke="#979797" stroke-width="2" cx="8" cy="8" r="7"></circle>
                        <g id="Rectangle-2" transform="translate(15.422397, 14.422397) rotate(-45.000000) translate(-15.422397, -14.422397) ">
                            <use fill="#D8D8D8" fill-rule="evenodd" xlink:href="#path-6"></use>
                            <rect stroke="#979797" stroke-width="1" x="14.9223968" y="11.0823968" width="1" height="7" rx="0.5"></rect>
                        </g>
                        <g id="Rectangle-4">
                            <use fill="#D8D8D8" fill-rule="evenodd" xlink:href="#path-7"></use>
                            <rect stroke="#979797" stroke-width="1" x="4.5" y="7.5" width="7" height="1" rx="0.5"></rect>
                        </g>
                    </g>
                </g>
            </g>
            <g id="橡皮擦" transform="translate(0.000000, 520.000000)" fill-rule="nonzero">
                <rect id="Rectangle-path" fill="#000000" opacity="0" x="0" y="0" width="20" height="20"></rect>
                <path d="M11.8073486,14.3793446 L17.4478649,8.85799404 L11.8272095,3.56504469 L6.53426018,9.09632572 L11.8073486,14.3793446 Z M10.387289,15.7696127 L5.16385303,10.5362463 L2.85004965,12.9096326 L6.0675273,16.1271102 C6.25493429,16.3129955 6.50863656,16.4166204 6.77259186,16.4150943 L8.87785502,16.4150943 C9.39748092,16.4155491 9.89659068,16.2123401 10.2681231,15.8490566 L10.387289,15.7696127 Z M12.5223436,16.4548163 L17.4875869,16.4548163 C18.0360325,16.4548163 18.4806356,16.8994193 18.4806356,17.447865 C18.4806356,17.9963106 18.0360325,18.4409136 17.4875869,18.4409136 L6.76266137,18.4409136 C5.97280893,18.4402183 5.2155605,18.1258887 4.6573982,17.5670308 L1.43992055,14.3495531 C0.682933703,13.5772721 0.682933703,12.3412979 1.43992055,11.5690169 L10.3773585,2.18470705 C11.1327496,1.3950902 12.3841182,1.36402787 13.1777557,2.11519365 L18.7884806,7.40814301 C19.1721468,7.77002025 19.3961248,8.26963793 19.4110278,8.79683123 C19.4259308,9.32402454 19.2305349,9.83549731 18.8679245,10.2184707 L18.8083416,10.2780536 L12.5223436,16.4548163 Z" id="Shape" fill="#979797"></path>
            </g>
            <g id="实物-画笔" transform="translate(0.000000, 240.000000)" fill-rule="nonzero">
                <rect id="Rectangle-path" fill="#000000" opacity="0" x="0" y="0" width="20" height="20"></rect>
                <path d="M6.06879832,11.9350853 C6.06879832,11.9350853 3.73632246,13.2201735 3.64606748,15.2343541 C3.55583814,17.2485608 1.66079125,18.7134573 1.02910895,18.8965434 C0.397426651,19.0796294 10.2637575,19.4941094 9.54184585,15.1910149 L6.06882396,11.9351113 L6.06879832,11.9350853 Z M10.4046014,13.3023775 C10.7639803,13.656193 10.8549789,14.1523827 10.6079059,14.4107271 C10.3608585,14.6690454 9.86919964,14.5916279 9.50989764,14.2378125 L7.13129431,11.9351113 C6.77194103,11.5813218 6.68091683,11.0851061 6.92798984,10.8267878 C7.17506284,10.5684694 7.66669608,10.6458609 8.02602372,10.9996763 L10.4046014,13.3023775 Z M18.6540604,1.20374029 C18.0093527,0.760072694 17.4299516,1.15787773 17.1803146,1.3027233 C16.4342495,1.80960475 11.0972571,7.07183285 8.77814001,9.50215837 C8.49340093,9.88716455 8.30148089,10.1861687 9.6669208,11.5714625 C10.8194666,12.7407888 11.356535,12.6643598 11.9402181,12.1594554 C12.9121514,11.1733714 17.0503679,5.31971653 18.5790873,3.08805941 C18.8301602,2.72147109 19.3444854,1.67888475 18.6540604,1.20374029 Z" id="Shape" fill="#979797"></path>
            </g>
            <g id="线条" transform="translate(0.000000, 160.000000)">
                <rect id="Rectangle-8" x="0" y="0" width="20" height="20"></rect>
                <g id="Group-2" transform="translate(1.000000, 8.000000)" fill="#979797">
                    <path d="M16.6695997,1.26745323 L17.8087501,3.09009406 C17.8672922,3.18376136 17.8388176,3.30715144 17.7451503,3.36569351 C17.7133639,3.38555996 17.6766344,3.39609385 17.6391505,3.39609385 L15.3608495,3.39609385 C15.2503926,3.39609385 15.1608495,3.30655079 15.1608495,3.19609384 C15.1608495,3.1586099 15.1713834,3.12188038 15.1912499,3.09009406 L16.3304003,1.26745323 C16.3889424,1.17378592 16.5123325,1.14531128 16.6059998,1.20385335 C16.6317536,1.21994949 16.6535035,1.2416994 16.6695997,1.26745323 Z" id="Rectangle-3"></path>
                    <rect id="Rectangle-2" x="0" y="1" width="14" height="2.4000001" rx="1"></rect>
                </g>
            </g>
            <g id="文本" transform="translate(0.000000, 280.000000)">
                <rect id="Rectangle-5" x="0" y="0" width="20" height="20"></rect>
                <rect id="Rectangle-6" fill="#979797" x="1" y="1" width="18" height="2.5" rx="1.25"></rect>
                <rect id="Rectangle-7" fill="#979797" x="9" y="2" width="2.4000001" height="16" rx="1.20000005"></rect>
            </g>
            <g id="调色板-copy" transform="translate(80.000000, 400.000000)">
                <g id="调色板" stroke-width="1" fill-rule="evenodd">
                    <rect id="Rectangle-9" x="0" y="0" width="20" height="20"></rect>
                </g>
                <rect id="Rectangle-4" stroke="#FFFFFF" stroke-width="2" x="1" y="3" width="18" height="14" rx="2"></rect>
            </g>
            <g id="形状-copy-2" transform="translate(80.000000, 320.000000)">
                <g id="形状">
                    <rect id="Rectangle-8" x="0" y="0" width="20" height="20"></rect>
                    <path d="M7.37061712,2.00013385 L1,12.1931213 L13.7412342,12.1931213 L7.37061712,2.00013385 Z" id="Triangle" stroke="#FFFFFF" stroke-width="2"></path>
                    <circle id="Oval" stroke="#FFFFFF" stroke-width="2" cx="13" cy="12" r="6"></circle>
                    <path d="M18.6695997,17.2713595 L19.8087501,19.0940003 C19.8672922,19.1876676 19.8388176,19.3110577 19.7451503,19.3695998 C19.7133639,19.3894662 19.6766344,19.4000001 19.6391505,19.4000001 L17.3608495,19.4000001 C17.2503926,19.4000001 17.1608495,19.310457 17.1608495,19.2000001 C17.1608495,19.1625161 17.1713834,19.1257866 17.1912499,19.0940003 L18.3304003,17.2713595 C18.3889424,17.1776922 18.5123325,17.1492175 18.6059998,17.2077596 C18.6317536,17.2238557 18.6535035,17.2456056 18.6695997,17.2713595 Z" id="Rectangle-3" fill="#FFFFFF"></path>
                </g>
            </g>
            <g id="激光笔-copy" transform="translate(80.000000, 360.000000)">
                <g id="形状" stroke-width="1">
                    <rect id="Rectangle-8" x="0" y="0" width="20" height="20"></rect>
                    <circle id="Oval" stroke="#FFFFFF" stroke-width="2" cx="12" cy="8" r="6"></circle>
                </g>
                <circle id="Oval-2" fill="#FFFFFF" cx="12" cy="8" r="2"></circle>
                <circle id="Oval-2-Copy" fill="#FFFFFF" cx="6" cy="15" r="1"></circle>
                <circle id="Oval-2-Copy-2" fill="#FFFFFF" cx="3" cy="18" r="1"></circle>
            </g>
            <g id="删除_hover-copy-2" transform="translate(80.000000, 600.000000)">
                <g id="Group" transform="translate(1.000000, 0.000000)">
                    <rect id="Rectangle-2" fill="#FFFFFF" x="6" y="0" width="6" height="2" rx="1"></rect>
                    <rect id="Rectangle" stroke="#FFFFFF" stroke-width="2" x="3" y="4" width="12" height="14" rx="2"></rect>
                    <rect id="Rectangle-11" fill="#FFFFFF" x="0" y="3" width="18" height="2" rx="1"></rect>
                    <rect id="Rectangle-12" fill="#FFFFFF" x="6" y="7" width="2" height="7" rx="1"></rect>
                    <rect id="Rectangle-12-Copy" fill="#FFFFFF" x="10" y="7" width="2" height="7" rx="1"></rect>
                </g>
            </g>
            <g id="橡皮擦_hover-copy-2" transform="translate(80.000000, 560.000000)">
                <rect id="Rectangle-9-Copy-3" x="0" y="0" width="20" height="20"></rect>
                <rect id="Rectangle-path" fill="#FFFFFF" fill-rule="nonzero" opacity="0" x="0" y="0" width="20" height="20"></rect>
                <g id="Group" stroke-width="1" fill-rule="evenodd" transform="translate(1.000000, 0.000000)">
                    <path d="M3.18839681,10 L1.26839681,18 L16.7316032,18 L14.8116032,10 L3.18839681,10 Z" id="Rectangle-15" stroke="#FFFFFF" stroke-width="2"></path>
                    <path d="M9,0 L9,0 C9.55228475,-1.01453063e-16 10,0.44771525 10,1 L10,10 C10,10.5522847 9.55228475,11 9,11 L9,11 C8.44771525,11 8,10.5522847 8,10 L8,1 C8,0.44771525 8.44771525,1.01453063e-16 9,0 Z" id="Rectangle-16" fill="#FFFFFF"></path>
                    <polygon id="Path-3-Copy" fill="#FFFFFF" points="8 17.6687012 9.60571289 15 9.60571289 17.6687012"></polygon>
                    <polygon id="Path-3-Copy-2" fill="#FFFFFF" points="10 17.6687012 11.6057129 15 11.6057129 17.6687012"></polygon>
                    <polygon id="Path-3-Copy-4" fill="#FFFFFF" points="12 17.6687012 13.6057129 15 13.6057129 17.6687012"></polygon>
                    <polygon id="Path-3" fill="#FFFFFF" points="6 17.6687012 7.60571289 15 7.60571289 17.6687012"></polygon>
                    <polygon id="Path-3-Copy-3" fill="#FFFFFF" points="3.39428711 17.6687012 5 15 5 17.6687012"></polygon>
                </g>
            </g>
            <g id="撤销_hover-copy-2" transform="translate(80.000000, 480.000000)">
                <rect id="Rectangle-9-Copy-5" x="0" y="0" width="20" height="20"></rect>
                <g id="撤销" stroke-width="1" fill-rule="evenodd">
                    <rect id="Rectangle-path" fill="#04B7A1" fill-rule="nonzero" opacity="0" x="0" y="0" width="20" height="20"></rect>
                    <path d="M4.88721745,5.14692285 L12.0334701,5.14692285 C15.7668137,5.14692285 18.7932867,8.17339579 18.7932867,11.9067394 C18.7932867,15.6400829 15.7668137,18.6665559 12.0334701,18.6665559 L3.02038146,18.6665559 C2.39815753,18.6665559 1.89374537,18.1621437 1.89374537,17.5399198 C1.89374537,16.9176959 2.39815753,16.4132837 3.02038146,16.4132837 L12.0334701,16.4132837 C14.5223659,16.4132837 16.5400145,14.3956351 16.5400145,11.9067394 C16.5400145,9.41784365 14.5223659,7.40019502 12.0334701,7.40019502 L4.80722629,7.40019502 L6.11074424,8.70371297 C6.40341373,8.98679111 6.52057078,9.40575789 6.41718673,9.79958577 C6.31380267,10.1934137 6.00596616,10.5008151 5.61199245,10.603642 C5.21801873,10.7064689 4.79921807,10.5887194 4.51655418,10.2956498 L1.33042733,7.11064955 C1.11887094,6.89932838 1,6.61257415 1,6.31355452 C1,6.01453488 1.11887094,5.72778065 1.33042733,5.51645948 L4.51655418,2.33033264 C4.9564665,1.89010921 5.66995749,1.889857 6.11018092,2.32976932 C6.55040435,2.76968163 6.55065656,3.48317263 6.11074424,3.92339606 L4.88721745,5.14692285 Z" id="Shape" fill="#FFFFFF" fill-rule="nonzero"></path>
                </g>
            </g>
            <g id="撤销_hover-copy-2" transform="translate(90.000000, 450.000000) scale(-1, 1) translate(-90.000000, -450.000000) translate(80.000000, 440.000000)">
                <rect id="Rectangle-9-Copy-5" x="0" y="0" width="20" height="20"></rect>
                <g id="撤销" stroke-width="1" fill-rule="evenodd">
                    <rect id="Rectangle-path" fill="#04B7A1" fill-rule="nonzero" opacity="0" x="0" y="0" width="20" height="20"></rect>
                    <path d="M4.88721745,5.14692285 L12.0334701,5.14692285 C15.7668137,5.14692285 18.7932867,8.17339579 18.7932867,11.9067394 C18.7932867,15.6400829 15.7668137,18.6665559 12.0334701,18.6665559 L3.02038146,18.6665559 C2.39815753,18.6665559 1.89374537,18.1621437 1.89374537,17.5399198 C1.89374537,16.9176959 2.39815753,16.4132837 3.02038146,16.4132837 L12.0334701,16.4132837 C14.5223659,16.4132837 16.5400145,14.3956351 16.5400145,11.9067394 C16.5400145,9.41784365 14.5223659,7.40019502 12.0334701,7.40019502 L4.80722629,7.40019502 L6.11074424,8.70371297 C6.40341373,8.98679111 6.52057078,9.40575789 6.41718673,9.79958577 C6.31380267,10.1934137 6.00596616,10.5008151 5.61199245,10.603642 C5.21801873,10.7064689 4.79921807,10.5887194 4.51655418,10.2956498 L1.33042733,7.11064955 C1.11887094,6.89932838 1,6.61257415 1,6.31355452 C1,6.01453488 1.11887094,5.72778065 1.33042733,5.51645948 L4.51655418,2.33033264 C4.9564665,1.89010921 5.66995749,1.889857 6.11018092,2.32976932 C6.55040435,2.76968163 6.55065656,3.48317263 6.11074424,3.92339606 L4.88721745,5.14692285 Z" id="Shape" fill="#FFFFFF" fill-rule="nonzero"></path>
                </g>
            </g>
            <g id="画笔_hover-copy-2" transform="translate(80.000000, 200.000000)">
                <g id="Group" transform="translate(2.000000, 1.000000)">
                    <path d="M15.2486264,3.49140774 L13.7830361,2.11683655 C13.3849815,1.7435028 12.7611153,1.75825028 12.3811458,2.14997561 L1.29758856,13.5764473 C1.11854886,13.7610263 1.01749462,14.0074818 1.01541677,14.2646081 C1.00365985,15.7232989 1.00365985,15.7232989 1.0013472,16.0097046 C1.0013472,16.5619893 1.44906245,17.0097046 2.0013472,17.0097046 L3.42089184,17.0097046 C3.69586983,17.0097046 3.95871418,16.896474 4.14760656,16.696644 L15.2939247,4.90489565 C15.6717398,4.50206297 15.6514591,3.86922287 15.2486264,3.49140774 Z" id="Rectangle-8" stroke="#FFFFFF" stroke-width="2"></path>
                    <rect id="Rectangle-10" fill="#FFFFFF" x="1" y="16" width="15" height="2" rx="1"></rect>
                    <polygon id="Path-25" fill="#FFFFFF" points="10.5610352 3.73999023 13.5073242 6.57202148 15.7126465 4.08032227 12.8618164 1.64355469"></polygon>
                </g>
            </g>
            <g id="放大-copy-4" transform="translate(80.000000, 120.000000)">
                <g id="放大" transform="translate(0.000000, 1.000000)">
                    <rect id="Rectangle-path" fill="#787878" fill-rule="nonzero" opacity="0" x="0" y="0" width="20" height="21"></rect>
                    <g id="Group" transform="translate(1.000000, 0.000000)">
                        <circle id="Oval" stroke="#FFFFFF" stroke-width="2" cx="8" cy="8" r="7"></circle>
                        <rect id="Rectangle-2" fill="#FFFFFF" transform="translate(15.422397, 14.422397) rotate(-45.000000) translate(-15.422397, -14.422397) " x="14.4223968" y="10.5823968" width="2" height="8" rx="1"></rect>
                        <rect id="Rectangle-4" fill="#FFFFFF" x="4" y="7" width="8" height="2" rx="1"></rect>
                        <rect id="Rectangle-3" fill="#FFFFFF" x="7" y="4" width="2" height="8" rx="1"></rect>
                    </g>
                </g>
            </g>
            <g id="添加-copy" transform="translate(80.000000, 0.000000)">
                <g id="Group" transform="translate(2.000000, 2.000000)">
                    <circle id="Oval" stroke="#FFFFFF" stroke-width="2" cx="8" cy="8" r="7"></circle>
                    <rect id="Rectangle-4" fill="#FFFFFF" x="4" y="7" width="8" height="2" rx="1"></rect>
                    <rect id="Rectangle-3" fill="#FFFFFF" x="7" y="4" width="2" height="8" rx="1"></rect>
                </g>
            </g>
            <g id="白板页-copy" transform="translate(80.000000, 40.000000)" stroke="#FFFFFF" stroke-width="2">
                <rect id="Rectangle-5" x="3" y="3" width="5" height="5" rx="1"></rect>
                <rect id="Rectangle-5-Copy" x="12" y="3" width="5" height="5" rx="1"></rect>
                <rect id="Rectangle-5-Copy-2" x="3" y="12" width="5" height="5" rx="1"></rect>
                <rect id="Rectangle-5-Copy-3" x="12" y="12" width="5" height="5" rx="1"></rect>
            </g>
            <g id="缩小-copy" transform="translate(80.000000, 80.000000)">
                <g id="放大">
                    <rect id="Rectangle-path" fill="#787878" fill-rule="nonzero" opacity="0" x="0" y="0" width="20" height="20"></rect>
                    <g id="Group" transform="translate(1.000000, 1.000000)">
                        <circle id="Oval" stroke="#FFFFFF" stroke-width="2" cx="8" cy="8" r="7"></circle>
                        <rect id="Rectangle-2" fill="#FFFFFF" transform="translate(15.422397, 14.422397) rotate(-45.000000) translate(-15.422397, -14.422397) " x="14.4223968" y="10.5823968" width="2" height="8" rx="1"></rect>
                        <rect id="Rectangle-4" fill="#FFFFFF" x="4" y="7" width="8" height="2" rx="1"></rect>
                    </g>
                </g>
            </g>
            <g id="橡皮擦" transform="translate(80.000000, 520.000000)" fill-rule="nonzero">
                <rect id="Rectangle-path" fill="#000000" opacity="0" x="0" y="0" width="20" height="20"></rect>
                <path d="M11.8073486,14.3793446 L17.4478649,8.85799404 L11.8272095,3.56504469 L6.53426018,9.09632572 L11.8073486,14.3793446 Z M10.387289,15.7696127 L5.16385303,10.5362463 L2.85004965,12.9096326 L6.0675273,16.1271102 C6.25493429,16.3129955 6.50863656,16.4166204 6.77259186,16.4150943 L8.87785502,16.4150943 C9.39748092,16.4155491 9.89659068,16.2123401 10.2681231,15.8490566 L10.387289,15.7696127 Z M12.5223436,16.4548163 L17.4875869,16.4548163 C18.0360325,16.4548163 18.4806356,16.8994193 18.4806356,17.447865 C18.4806356,17.9963106 18.0360325,18.4409136 17.4875869,18.4409136 L6.76266137,18.4409136 C5.97280893,18.4402183 5.2155605,18.1258887 4.6573982,17.5670308 L1.43992055,14.3495531 C0.682933703,13.5772721 0.682933703,12.3412979 1.43992055,11.5690169 L10.3773585,2.18470705 C11.1327496,1.3950902 12.3841182,1.36402787 13.1777557,2.11519365 L18.7884806,7.40814301 C19.1721468,7.77002025 19.3961248,8.26963793 19.4110278,8.79683123 C19.4259308,9.32402454 19.2305349,9.83549731 18.8679245,10.2184707 L18.8083416,10.2780536 L12.5223436,16.4548163 Z" id="Shape" fill="#FFFFFF"></path>
            </g>
            <g id="实物-画笔" transform="translate(80.000000, 240.000000)" fill-rule="nonzero">
                <rect id="Rectangle-path" fill="#000000" opacity="0" x="0" y="0" width="20" height="20"></rect>
                <path d="M6.06879832,11.9350853 C6.06879832,11.9350853 3.73632246,13.2201735 3.64606748,15.2343541 C3.55583814,17.2485608 1.66079125,18.7134573 1.02910895,18.8965434 C0.397426651,19.0796294 10.2637575,19.4941094 9.54184585,15.1910149 L6.06882396,11.9351113 L6.06879832,11.9350853 Z M10.4046014,13.3023775 C10.7639803,13.656193 10.8549789,14.1523827 10.6079059,14.4107271 C10.3608585,14.6690454 9.86919964,14.5916279 9.50989764,14.2378125 L7.13129431,11.9351113 C6.77194103,11.5813218 6.68091683,11.0851061 6.92798984,10.8267878 C7.17506284,10.5684694 7.66669608,10.6458609 8.02602372,10.9996763 L10.4046014,13.3023775 Z M18.6540604,1.20374029 C18.0093527,0.760072694 17.4299516,1.15787773 17.1803146,1.3027233 C16.4342495,1.80960475 11.0972571,7.07183285 8.77814001,9.50215837 C8.49340093,9.88716455 8.30148089,10.1861687 9.6669208,11.5714625 C10.8194666,12.7407888 11.356535,12.6643598 11.9402181,12.1594554 C12.9121514,11.1733714 17.0503679,5.31971653 18.5790873,3.08805941 C18.8301602,2.72147109 19.3444854,1.67888475 18.6540604,1.20374029 Z" id="Shape" fill="#FFFFFF"></path>
            </g>
            <g id="线条" transform="translate(80.000000, 160.000000)">
                <rect id="Rectangle-8" x="0" y="0" width="20" height="20"></rect>
                <g id="Group-2" transform="translate(1.000000, 8.000000)" fill="#FFFFFF">
                    <path d="M16.6695997,1.26745323 L17.8087501,3.09009406 C17.8672922,3.18376136 17.8388176,3.30715144 17.7451503,3.36569351 C17.7133639,3.38555996 17.6766344,3.39609385 17.6391505,3.39609385 L15.3608495,3.39609385 C15.2503926,3.39609385 15.1608495,3.30655079 15.1608495,3.19609384 C15.1608495,3.1586099 15.1713834,3.12188038 15.1912499,3.09009406 L16.3304003,1.26745323 C16.3889424,1.17378592 16.5123325,1.14531128 16.6059998,1.20385335 C16.6317536,1.21994949 16.6535035,1.2416994 16.6695997,1.26745323 Z" id="Rectangle-3"></path>
                    <rect id="Rectangle-2" x="0" y="1" width="14" height="2.4000001" rx="1"></rect>
                </g>
            </g>
            <g id="文本" transform="translate(80.000000, 280.000000)">
                <rect id="Rectangle-5" x="0" y="0" width="20" height="20"></rect>
                <rect id="Rectangle-6" fill="#FFFFFF" x="1" y="1" width="18" height="2.5" rx="1.25"></rect>
                <rect id="Rectangle-7" fill="#FFFFFF" x="9" y="2" width="2.4000001" height="16" rx="1.20000005"></rect>
            </g>
        </g>
    </g>
</svg>