<?xml version="1.0" encoding="UTF-8"?>
<svg width="116px" height="350px" viewBox="0 0 116 350" version="1.1" xmlns="http://www.w3.org/2000/svg" xmlns:xlink="http://www.w3.org/1999/xlink">
    <!-- Generator: Sketch 52.5 (67469) - http://www.bohemiancoding.com/sketch -->
    <title>Untitled 2</title>
    <desc>Created with Sketch.</desc>
    <g id="Page-1" stroke="none" stroke-width="1" fill="none" fill-rule="evenodd">
        <g id="icons">
            <g id="视频-(1)" transform="translate(0.000000, 57.000000)" fill="#000000" fill-rule="nonzero">
                <path d="M4.56766061,3.46354148 C3.96552255,3.46354148 3.47739321,3.94954015 3.47739321,4.54904989 C3.47739321,5.14855963 3.96552255,5.6345583 4.56766061,5.6345583 C5.17016673,5.6345583 5.65859444,5.14826256 5.65859444,4.54838637 C5.65859444,3.94851018 5.17016673,3.46221445 4.56766061,3.46221445 L4.56766061,3.46354148 Z M31.6244188,1.43318958 C31.4010884,1.31176854 31.1288887,1.32195695 30.9153451,1.45973012 L22.9529277,6.6961802 L22.9529277,2.76950615 C22.9529277,2.03498745 22.6598621,1.33055272 22.1382019,0.811169565 C21.6165417,0.29178641 20.9090186,-5.15551207e-09 20.1712797,0 L2.78164799,0 C1.24538623,-9.36582937e-17 1.88137805e-16,1.23995014 0,2.76950615 L0,16.621018 C0,18.1510806 1.24621028,19.3905242 2.78164799,19.3905242 L20.1712797,19.3905242 C20.9090186,19.3905242 21.6165417,19.0987378 22.1382019,18.5793546 C22.6598621,18.0599715 22.9529277,17.3555367 22.9529277,16.621018 L22.9529277,13.2822171 L30.9100138,18.5982888 C31.1231782,18.7401776 31.397607,18.7532963 31.6234443,18.6323934 C31.8492815,18.5114906 31.9896217,18.2763237 31.9882855,18.0210319 L31.9882855,2.04362218 C31.9889478,1.7897103 31.8497668,1.55586753 31.6257516,1.43451661 L31.6244188,1.43318958 Z M21.5614373,7.85467511 C21.5523788,7.90012046 21.5479137,7.94635472 21.5481088,7.99268595 L21.5481088,11.9737681 C21.5481088,12.0215411 21.5534402,12.0679871 21.5614373,12.113106 L21.5614373,16.621018 C21.5614373,17.3853858 20.9389986,18.0051076 20.1712797,18.0051076 L2.78164799,18.0051076 C2.01418972,18.004376 1.39222519,17.3851264 1.39149042,16.621018 L1.39149042,2.76950615 C1.39149042,2.00513838 2.01392914,1.38541659 2.78164799,1.38541659 L20.1712797,1.38541659 C20.9389986,1.38541659 21.5627701,2.00513838 21.5627701,2.76950615 L21.5627701,7.85600214 L21.5614373,7.85467511 Z M30.598128,16.7351424 L22.9515949,11.6114896 L22.9515949,8.36027255 L30.5954623,3.31226036 L30.5954623,16.7351424 L30.598128,16.7351424 Z" id="Shape"></path>
            </g>
            <g id="视频-(1)" transform="translate(84.000000, 57.000000)" fill="#000000" fill-rule="nonzero">
                <path d="M4.56766061,3.46354148 C3.96552255,3.46354148 3.47739321,3.94954015 3.47739321,4.54904989 C3.47739321,5.14855963 3.96552255,5.6345583 4.56766061,5.6345583 C5.17016673,5.6345583 5.65859444,5.14826256 5.65859444,4.54838637 C5.65859444,3.94851018 5.17016673,3.46221445 4.56766061,3.46221445 L4.56766061,3.46354148 Z M31.6244188,1.43318958 C31.4010884,1.31176854 31.1288887,1.32195695 30.9153451,1.45973012 L22.9529277,6.6961802 L22.9529277,2.76950615 C22.9529277,2.03498745 22.6598621,1.33055272 22.1382019,0.811169565 C21.6165417,0.29178641 20.9090186,-5.15551207e-09 20.1712797,0 L2.78164799,0 C1.24538623,-9.36582937e-17 1.88137805e-16,1.23995014 0,2.76950615 L0,16.621018 C0,18.1510806 1.24621028,19.3905242 2.78164799,19.3905242 L20.1712797,19.3905242 C20.9090186,19.3905242 21.6165417,19.0987378 22.1382019,18.5793546 C22.6598621,18.0599715 22.9529277,17.3555367 22.9529277,16.621018 L22.9529277,13.2822171 L30.9100138,18.5982888 C31.1231782,18.7401776 31.397607,18.7532963 31.6234443,18.6323934 C31.8492815,18.5114906 31.9896217,18.2763237 31.9882855,18.0210319 L31.9882855,2.04362218 C31.9889478,1.7897103 31.8497668,1.55586753 31.6257516,1.43451661 L31.6244188,1.43318958 Z M21.5614373,7.85467511 C21.5523788,7.90012046 21.5479137,7.94635472 21.5481088,7.99268595 L21.5481088,11.9737681 C21.5481088,12.0215411 21.5534402,12.0679871 21.5614373,12.113106 L21.5614373,16.621018 C21.5614373,17.3853858 20.9389986,18.0051076 20.1712797,18.0051076 L2.78164799,18.0051076 C2.01418972,18.004376 1.39222519,17.3851264 1.39149042,16.621018 L1.39149042,2.76950615 C1.39149042,2.00513838 2.01392914,1.38541659 2.78164799,1.38541659 L20.1712797,1.38541659 C20.9389986,1.38541659 21.5627701,2.00513838 21.5627701,2.76950615 L21.5627701,7.85600214 L21.5614373,7.85467511 Z M30.598128,16.7351424 L22.9515949,11.6114896 L22.9515949,8.36027255 L30.5954623,3.31226036 L30.5954623,16.7351424 L30.598128,16.7351424 Z" id="Shape"></path>
            </g>
            <path d="M98.353999,45.4685919 C98.9062837,45.4685919 99.353999,45.9163071 99.353999,46.4685919 L99.353999,85.2394069 C99.353999,85.7916916 98.9062837,86.2394069 98.353999,86.2394069 C97.8017142,86.2394069 97.353999,85.7916916 97.353999,85.2394069 L97.353999,46.4685919 C97.353999,45.9163071 97.8017142,45.4685919 98.353999,45.4685919 Z" id="Rectangle-5-Copy" fill="#3D4041" transform="translate(98.353999, 65.853999) scale(-1, 1) rotate(45.000000) translate(-98.353999, -65.853999) "></path>
            <g id="音频" transform="translate(1.000000, 114.000000)" fill="#000000">
                <path d="M16.5814251,10.098119 C16.2167275,10.0841005 15.9105003,10.3904927 15.8974317,10.782507 C15.8955052,10.8395883 15.8882159,10.9590952 15.8722056,11.1318221 C15.8449229,11.4265183 15.8022286,11.7565546 15.7409207,12.112865 C15.5659263,13.1300873 15.2784168,14.1463023 14.8552229,15.0879479 C13.6699102,17.7253837 11.6831689,19.2755607 8.61423187,19.2755607 C5.54253539,19.2755607 3.5557159,17.7489997 2.37152266,15.1540951 C1.94900559,14.2283707 1.66191268,13.2292801 1.48723063,12.2291262 C1.4260789,11.8788876 1.38343669,11.5544476 1.35618006,11.264844 C1.34019574,11.095223 1.33290647,10.9780384 1.33103208,10.9222443 C1.31775521,10.530258 1.01137175,10.2240057 0.646674194,10.238276 C0.28197661,10.2525183 -0.00290348743,10.5817991 0.0103213089,10.9737853 C0.0210209132,11.2895232 0.0708222226,11.8183647 0.188335591,12.4911685 C0.383661863,13.6092345 0.705248651,14.7284197 1.18501249,15.7796669 C2.47815423,18.6132218 4.65860783,20.421188 7.85156644,20.6671692 L7.85156644,23.0572248 L3.25089445,23.0572247 C2.88596258,23.0572247 2.59012253,23.3751731 2.59012253,23.7674392 C2.59012253,24.1596772 2.88593653,24.4777096 3.25089445,24.4777096 L13.8760402,24.4777096 C14.2409721,24.4777096 14.5368642,24.1597052 14.5368642,23.7674392 C14.5368642,23.3752011 14.2409982,23.0572247 13.8760402,23.0572247 L9.17316233,23.0572247 L9.17316233,20.6804042 C12.4799116,20.4941904 14.7256562,18.6419023 16.0452215,15.705713 C16.5242825,14.6396638 16.8454267,13.5048092 17.0404666,12.3710179 C17.1577977,11.6888684 17.2074949,11.1529198 17.2181424,10.8332645 C17.231211,10.4412783 16.9461227,10.1121375 16.5814251,10.098119 Z" id="Path"></path>
                <path d="M8.51486355,17.0676337 C11.1856504,17.0676337 13.360585,14.7365061 13.360585,11.8608678 L13.360585,5.22911216 C13.360585,2.3566637 11.1910653,0.0222903789 8.51486355,0.0222903789 C5.84412874,0.0222903789 3.66919415,2.35347383 3.66919415,5.22911216 L3.66919415,11.8608678 C3.66916813,14.7332883 5.83863577,17.0676337 8.51486355,17.0676337 Z M4.99071197,5.22911216 C4.99071197,3.14030038 6.57180573,1.4427753 8.51486358,1.4427753 C10.4601863,1.4427753 12.0390672,3.1399926 12.0390672,5.22911216 L12.0390672,11.8608678 C12.0390672,13.9496237 10.4579735,15.6472047 8.51486358,15.6472047 C6.56959292,15.6472047 4.99071197,13.9499315 4.99071197,11.8608678 L4.99071197,5.22911216 Z" id="Shape" fill-rule="nonzero"></path>
                <path d="M16.5814251,10.098119 C16.2167275,10.0841005 15.9105003,10.3904927 15.8974317,10.782507 C15.8955052,10.8395883 15.8882159,10.9590952 15.8722056,11.1318221 C15.8449229,11.4265183 15.8022286,11.7565546 15.7409207,12.112865 C15.5659263,13.1300873 15.2784168,14.1463023 14.8552229,15.0879479 C13.6699102,17.7253837 11.6831689,19.2755607 8.61423187,19.2755607 C5.54253539,19.2755607 3.5557159,17.7489997 2.37152266,15.1540951 C1.94900559,14.2283707 1.66191268,13.2292801 1.48723063,12.2291262 C1.4260789,11.8788876 1.38343669,11.5544476 1.35618006,11.264844 C1.34019574,11.095223 1.33290647,10.9780384 1.33103208,10.9222443 C1.31775521,10.530258 1.01137175,10.2240057 0.646674194,10.238276 C0.28197661,10.2525183 -0.00290348743,10.5817991 0.0103213089,10.9737853 C0.0210209132,11.2895232 0.0708222226,11.8183647 0.188335591,12.4911685 C0.383661863,13.6092345 0.705248651,14.7284197 1.18501249,15.7796669 C2.47815423,18.6132218 4.65860783,20.421188 7.85156644,20.6671692 L7.85156644,23.0572248 L3.25089445,23.0572247 C2.88596258,23.0572247 2.59012253,23.3751731 2.59012253,23.7674392 C2.59012253,24.1596772 2.88593653,24.4777096 3.25089445,24.4777096 L13.8760402,24.4777096 C14.2409721,24.4777096 14.5368642,24.1597052 14.5368642,23.7674392 C14.5368642,23.3752011 14.2409982,23.0572247 13.8760402,23.0572247 L9.17316233,23.0572247 L9.17316233,20.6804042 C12.4799116,20.4941904 14.7256562,18.6419023 16.0452215,15.705713 C16.5242825,14.6396638 16.8454267,13.5048092 17.0404666,12.3710179 C17.1577977,11.6888684 17.2074949,11.1529198 17.2181424,10.8332645 C17.231211,10.4412783 16.9461227,10.1121375 16.5814251,10.098119 Z" id="Path"></path>
                <path d="M8.51486355,17.0676337 C11.1856504,17.0676337 13.360585,14.7365061 13.360585,11.8608678 L13.360585,5.22911216 C13.360585,2.3566637 11.1910653,0.0222903789 8.51486355,0.0222903789 C5.84412874,0.0222903789 3.66919415,2.35347383 3.66919415,5.22911216 L3.66919415,11.8608678 C3.66916813,14.7332883 5.83863577,17.0676337 8.51486355,17.0676337 Z M4.99071197,5.22911216 C4.99071197,3.14030038 6.57180573,1.4427753 8.51486358,1.4427753 C10.4601863,1.4427753 12.0390672,3.1399926 12.0390672,5.22911216 L12.0390672,11.8608678 C12.0390672,13.9496237 10.4579735,15.6472047 8.51486358,15.6472047 C6.56959292,15.6472047 4.99071197,13.9499315 4.99071197,11.8608678 L4.99071197,5.22911216 Z" id="Shape" fill-rule="nonzero"></path>
            </g>
            <g id="挂断-(1)" transform="translate(80.000000, 7.000000)" fill="#FFFFFF">
                <path d="M2.22238127,2.33412698 C11.921039,-2.26547619 20.0861717,1.09566667 22.7787246,2.75701587 C25.4275407,4.38266667 24.2165753,10.3388095 24.2165753,10.3388095 L17.6177703,9.43536508 C17.6177703,9.43536508 18.3749654,5.37947619 17.2077369,5.0774127 C11.1310412,3.60279365 7.34779933,5.09388889 7.34779933,5.09388889 C6.31724861,5.68153968 6.93503233,9.42712698 6.93503233,9.42712698 L0.34716165,10.3690159 C0.34716165,10.3717619 -1.1945641,3.979 2.22238127,2.33412698 Z" id="Path"></path>
            </g>
            <g id="声音" transform="translate(0.000000, 176.600000)" fill="#000000" fill-rule="nonzero">
                <path d="M19.8053572,8.5259675 C21.6142857,11.4538915 21.6142857,14.8292908 18.6,18.20469 C18.3041944,18.4703968 17.8636628,18.4703968 17.5678572,18.20469 C17.3091556,17.8993512 17.3091556,17.4438225 17.5678572,17.1384837 C20.15,14.3854985 20.15,11.8111351 18.6,9.41355201 C18.4207386,9.0537859 18.1888584,8.72460883 17.9125,8.43757732 L17.6535714,8.17056538 C17.4984595,8.0449981 17.4010741,7.85848107 17.38481,7.65582068 C17.3685458,7.45316029 17.4348727,7.25267169 17.5678572,7.10251762 C17.6898509,6.94399055 17.8701121,6.84470541 18.0657182,6.82830317 C18.2613244,6.81190092 18.4547724,6.87984928 18.6,7.01596893 C18.8589286,7.2811394 19.375,7.81516329 19.8053572,8.5259675 Z M22.8196428,5.0621781 C26.0071428,10.0341246 26.0071428,15.7187167 20.7535714,21.4014674 C20.4574763,21.6682452 20.015738,21.6682452 19.7196428,21.4014674 C19.4609413,21.0961286 19.4609413,20.6405999 19.7196428,20.3352611 C24.4571428,15.2749245 24.4571428,10.3913681 21.6142857,5.94976261 C21.1857143,5.23895841 20.7535714,4.70677598 20.3232143,4.17459358 C20.0642857,3.81919149 19.8053571,3.64056969 19.7196428,3.55217953 C19.5650953,3.42663033 19.4680923,3.24049801 19.4518378,3.0383071 C19.4355833,2.83611618 19.5015393,2.63605255 19.6339286,2.48597324 C19.755677,2.32660094 19.9361744,2.22656962 20.1322443,2.20980768 C20.3283142,2.19304574 20.5223213,2.26106081 20.6678572,2.39758308 C20.8392857,2.57436339 21.0964286,2.75298517 21.3571428,3.10838729 C21.8732143,3.72895987 22.3892857,4.35137392 22.8214286,5.06033663 L22.8196428,5.0621781 Z M11.7142857,0.622414048 C13.0910714,-0.622414023 14.5535714,0.0883901561 14.5535714,2.04218099 L14.5535714,22.9998561 C14.5535714,24.8652568 13.1785714,25.5742195 11.7142857,24.4214645 L5.5125,19.357445 L2.92857144,19.357445 C1.29107144,19.3592864 0,18.0279096 0,16.3411308 L0,8.79113797 C0,7.10435909 1.37857144,5.77114084 2.92857144,5.77114084 L5.85714285,5.77114084 L11.7089286,0.624255514 L11.7142857,0.622414048 Z M13.0910714,22.911466 L13.0053572,22.911466 L13.0053572,1.95194937 C13.0053572,1.41792548 13.0053572,1.41792548 12.575,1.77332757 L6.54464285,7.10435909 C6.42675495,7.21520179 6.27379113,7.27803563 6.11428572,7.2811394 L2.92857144,7.2811394 C2.12972102,7.30517176 1.48759053,7.96734862 1.46428572,8.79113797 L1.46428572,16.3411308 C1.46428572,17.1384837 2.15357144,17.8492879 2.92857144,17.8492879 L5.76785715,17.8492879 C5.93928572,17.8492879 6.1125,17.937678 6.19821428,18.0260682 L12.5714286,23.1766365 C13,23.5320385 13.0875,23.5320385 13.0875,22.911466 L13.0910714,22.911466 Z" id="Shape"></path>
            </g>
            <g id="声音" transform="translate(86.000000, 177.000000)" fill="#000000" fill-rule="nonzero">
                <path d="M19.8053572,8.5259675 C21.6142857,11.4538915 21.6142857,14.8292908 18.6,18.20469 C18.3041944,18.4703968 17.8636628,18.4703968 17.5678572,18.20469 C17.3091556,17.8993512 17.3091556,17.4438225 17.5678572,17.1384837 C20.15,14.3854985 20.15,11.8111351 18.6,9.41355201 C18.4207386,9.0537859 18.1888584,8.72460883 17.9125,8.43757732 L17.6535714,8.17056538 C17.4984595,8.0449981 17.4010741,7.85848107 17.38481,7.65582068 C17.3685458,7.45316029 17.4348727,7.25267169 17.5678572,7.10251762 C17.6898509,6.94399055 17.8701121,6.84470541 18.0657182,6.82830317 C18.2613244,6.81190092 18.4547724,6.87984928 18.6,7.01596893 C18.8589286,7.2811394 19.375,7.81516329 19.8053572,8.5259675 Z M22.8196428,5.0621781 C26.0071428,10.0341246 26.0071428,15.7187167 20.7535714,21.4014674 C20.4574763,21.6682452 20.015738,21.6682452 19.7196428,21.4014674 C19.4609413,21.0961286 19.4609413,20.6405999 19.7196428,20.3352611 C24.4571428,15.2749245 24.4571428,10.3913681 21.6142857,5.94976261 C21.1857143,5.23895841 20.7535714,4.70677598 20.3232143,4.17459358 C20.0642857,3.81919149 19.8053571,3.64056969 19.7196428,3.55217953 C19.5650953,3.42663033 19.4680923,3.24049801 19.4518378,3.0383071 C19.4355833,2.83611618 19.5015393,2.63605255 19.6339286,2.48597324 C19.755677,2.32660094 19.9361744,2.22656962 20.1322443,2.20980768 C20.3283142,2.19304574 20.5223213,2.26106081 20.6678572,2.39758308 C20.8392857,2.57436339 21.0964286,2.75298517 21.3571428,3.10838729 C21.8732143,3.72895987 22.3892857,4.35137392 22.8214286,5.06033663 L22.8196428,5.0621781 Z M11.7142857,0.622414048 C13.0910714,-0.622414023 14.5535714,0.0883901561 14.5535714,2.04218099 L14.5535714,22.9998561 C14.5535714,24.8652568 13.1785714,25.5742195 11.7142857,24.4214645 L5.5125,19.357445 L2.92857144,19.357445 C1.29107144,19.3592864 0,18.0279096 0,16.3411308 L0,8.79113797 C0,7.10435909 1.37857144,5.77114084 2.92857144,5.77114084 L5.85714285,5.77114084 L11.7089286,0.624255514 L11.7142857,0.622414048 Z M13.0910714,22.911466 L13.0053572,22.911466 L13.0053572,1.95194937 C13.0053572,1.41792548 13.0053572,1.41792548 12.575,1.77332757 L6.54464285,7.10435909 C6.42675495,7.21520179 6.27379113,7.27803563 6.11428572,7.2811394 L2.92857144,7.2811394 C2.12972102,7.30517176 1.48759053,7.96734862 1.46428572,8.79113797 L1.46428572,16.3411308 C1.46428572,17.1384837 2.15357144,17.8492879 2.92857144,17.8492879 L5.76785715,17.8492879 C5.93928572,17.8492879 6.1125,17.937678 6.19821428,18.0260682 L12.5714286,23.1766365 C13,23.5320385 13.0875,23.5320385 13.0875,22.911466 L13.0910714,22.911466 Z" id="Shape"></path>
            </g>
            <path d="M98.1217669,171.736359 C98.6740516,171.736359 99.1217669,172.184074 99.1217669,172.736359 L99.1217669,208.507174 C99.1217669,209.059459 98.6740516,209.507174 98.1217669,209.507174 C97.5694821,209.507174 97.1217669,209.059459 97.1217669,208.507174 L97.1217669,172.736359 C97.1217669,172.184074 97.5694821,171.736359 98.1217669,171.736359 Z" id="Rectangle-5-Copy" fill="#3D4041" transform="translate(98.121767, 190.621766) scale(-1, 1) rotate(45.000000) translate(-98.121767, -190.621766) "></path>
            <g id="接听-(1)" fill="#FFFFFF" fill-rule="nonzero">
                <path d="M20.1390402,1.06017549 C19.3060149,1.12396974 16.2569419,4.64950076 16.1910224,5.55013616 C16.1380149,6.27380333 17.6259434,7.34363691 17.92031,7.50586384 C18.5465633,7.85199395 19.0503487,8.36648714 19.2567988,8.74024811 C19.5515231,9.2732587 18.2995171,12.2557943 16.0857586,15.0767927 C13.5279881,17.5825598 10.7243517,19.1314856 10.1739613,18.884587 C9.78677794,18.7100151 9.23298957,18.2508563 8.83632787,17.6510015 C8.64997914,17.3695008 7.4570611,15.9666445 6.7524769,16.0897307 C5.87549329,16.241174 2.70860209,19.6590499 2.72645007,20.5058396 C2.74540686,21.3534281 5.69068256,23.5175673 6.69185097,23.8882784 C7.65399702,24.2443933 11.9759285,23.7713646 18.1668912,17.2425295 L18.1729359,17.2495008 C18.2131028,17.2033525 18.2501937,17.1572042 18.2903964,17.111056 C18.3319656,17.0675045 18.3732304,17.0236546 18.4141878,16.9795098 L18.4077496,16.97341 C24.2203279,10.0977549 24.2730134,5.6846233 23.8323934,4.74560968 C23.3752131,3.76963389 20.9724232,0.999322239 20.1390402,1.06017549 Z M1.03085544,11.3051982 C0.949019374,11.3051982 0.866467958,11.2959032 0.783558867,11.2744085 C0.234563338,11.1359637 -0.0994694486,10.5729985 0.0369120715,10.0161331 C0.590700447,7.75192738 1.72263487,5.65539486 3.31060507,3.95422693 C5.13421162,2.00154917 7.46428614,0.65326475 10.048918,0.0564962179 C10.5997377,-0.0704750378 11.1486259,0.280229955 11.2739553,0.838583964 C11.3997496,1.39857186 11.0542712,1.95616339 10.502772,2.08298941 C8.31397914,2.58829652 6.34068554,3.72958548 4.79663785,5.38471407 C3.45149329,6.8244236 2.49270939,8.59947958 2.02333234,10.5160666 C1.90780328,10.9890953 1.49036066,11.3051982 1.03085544,11.3051982 Z" id="Shape"></path>
                <path d="M4.99557675,12.0942572 C4.91374069,12.0942572 4.83079583,12.0850348 4.74777943,12.0635401 C4.19928465,11.9250953 3.86514456,11.3613313 4.00152608,10.804466 C4.3849538,9.23785779 5.16679583,7.78965204 6.26310581,6.61524962 C7.52380328,5.26467776 9.13445007,4.33332526 10.9202504,3.92187595 C11.4706766,3.79425113 12.0195648,4.14564599 12.1452876,4.70479879 C12.2702951,5.26544024 11.9248167,5.82150681 11.3736751,5.94836914 C9.98374963,6.26839334 8.73063487,6.9928593 7.74917437,8.04413918 C6.89572578,8.95944327 6.28653353,10.0868623 5.98808942,11.3051619 C5.87245306,11.7782269 5.45497466,12.0942572 4.99554098,12.0942572 L4.99557675,12.0942572 Z M9.070462,12.4857731 C8.98937705,12.4857731 8.90721908,12.4765507 8.82459613,12.4557458 C8.27610134,12.3180635 7.94049478,11.7551346 8.07569598,11.1982693 C8.25718033,10.4499486 8.63220268,9.75623601 9.15945156,9.19098336 C9.76556781,8.54338275 10.5365007,8.09733132 11.3895559,7.90122844 C11.9384441,7.77356732 12.4888703,8.12583359 12.6138778,8.68491377 C12.7388852,9.24490166 12.3929776,9.80165809 11.8414784,9.92775794 C11.3845842,10.0331256 10.9709687,10.2731256 10.6451624,10.6215068 C10.3614545,10.9252648 10.1602981,11.2967746 10.06369,11.6951528 C9.9488763,12.1688351 9.53071833,12.4857731 9.07042623,12.4857731 L9.070462,12.4857731 Z" id="Shape"></path>
            </g>
        </g>
        <g id="选中-勾" transform="translate(0.000000, 250.000000)" fill="#333333">
            <path d="M21.1993515,0.864832595 C21.631441,0.26761258 22.35934,-0.0559689608 23.1041536,0.0180684115 C23.8489672,0.0921057838 24.4952182,0.552283178 24.7952951,1.22228338 C25.095372,1.89228358 25.0027504,2.66822852 24.5529183,3.25281448 L11.9500648,20.1450498 C11.6233678,20.5824687 11.1311044,20.8740382 10.582999,20.9547682 C10.0348935,21.0354982 9.47650464,20.8986784 9.03229572,20.5748054 L0.87872894,14.623095 C0.284861762,14.1885566 -0.0265725214,13.4775422 0.0617403718,12.757884 C0.150053265,12.0382258 0.624696505,11.4192571 1.30687657,11.1341374 C1.98905664,10.8490176 2.77513415,10.9410634 3.36900131,11.3756018 L9.83540856,16.0988597 L21.2014267,0.864832595 L21.1993515,0.864832595 Z" id="Path"></path>
        </g>
        <g id="邀请-(1)" transform="translate(0.000000, 325.000000)" fill="#000000">
            <path d="M18.4877926,15.0439933 C18.8263657,15.3126251 19.3681717,15.1782536 19.6390747,14.7753059 C19.7745262,14.5738042 19.7745262,14.3723582 19.7745262,14.1708565 C19.7068004,13.9693548 19.5712932,13.7678532 19.4358974,13.6335929 C18.9618729,13.3650167 18.4877926,13.0291435 17.9460424,12.8276974 C18.6231884,12.1560623 19.1649944,11.4173526 19.5036789,10.5442714 C19.909922,9.60400445 20.1130992,8.59660734 20.1130992,7.52202447 C20.1130992,3.35806452 16.7270903,0 12.5283724,0 C8.3296544,0 5.0113155,3.42519466 5.0113155,7.58915462 C5.0113155,9.60394883 5.82396878,11.4844828 7.2460981,12.8948276 C2.84425864,14.9096218 0,19.2750834 0,24.1106229 C0,24.5807564 0.338628763,24.916574 0.812653289,24.916574 C1.28667781,24.916574 1.62530658,24.5807564 1.62530658,24.1106229 C1.62530658,19.610901 4.46956522,15.581257 8.66828317,14.0365962 C11.038573,15.4468854 14.0859532,15.3797553 16.3885173,14.0365962 C17.1333333,14.305228 17.8783166,14.64099 18.4877926,15.0439933 Z M12.5283724,13.4321468 C9.2777592,13.4321468 6.63662207,10.8128476 6.63662207,7.58915462 C6.63662207,4.36546162 9.2777592,1.74621802 12.5283724,1.74621802 C15.7789855,1.74621802 18.4200669,4.36546162 18.4200669,7.58915462 C18.4200669,8.39505006 18.2846711,9.20100111 17.9460424,9.93976641 C17.6751951,10.6114016 17.2011148,11.2157953 16.6593088,11.7531146 C15.575864,12.8276418 14.0858974,13.4321468 12.5283724,13.4321468 Z" id="Shape" fill-rule="nonzero"></path>
            <path d="M24.1081382,19.6607341 L21.432553,19.6607341 L21.432553,16.9911012 C21.432553,16.4996107 21.0332776,16.1012236 20.5406912,16.1012236 C20.0481048,16.1012236 19.6488294,16.4996107 19.6488294,16.9911012 L19.6488294,19.6607341 L16.9732441,19.6607341 C16.4806577,19.6607341 16.0813824,20.0591212 16.0813824,20.5506118 C16.0813824,21.0421023 16.4806577,21.4404894 16.9732441,21.4404894 L19.6488294,21.4404894 L19.6488294,24.1101224 C19.6488294,24.6016129 20.0481048,25 20.5406912,25 C21.0332776,25 21.432553,24.6016129 21.432553,24.1101224 L21.432553,21.4404894 L24.1081382,21.4404894 C24.6007246,21.4404894 25,21.0421023 25,20.5506118 C25,20.0591212 24.6007246,19.6607341 24.1081382,19.6607341 Z" id="Path"></path>
        </g>
    </g>
</svg>